<svg width="57" height="43" viewBox="0 0 57 43" fill="none" xmlns="http://www.w3.org/2000/svg">
<g clip-path="url(#clip0_637_181)">
<path d="M28.867 14.2563C23.5403 14.2563 19.2438 17.4876 19.2438 21.4937C19.2438 25.4997 23.5403 28.731 28.867 28.731C34.1936 28.731 38.4901 25.4997 38.4901 21.4937C38.4901 17.4876 34.1936 14.2563 28.867 14.2563ZM28.867 26.1989C25.4247 26.1989 22.6107 24.0888 22.6107 21.4937C22.6107 18.8986 25.4164 16.7885 28.867 16.7885C32.3175 16.7885 35.1232 18.8986 35.1232 21.4937C35.1232 24.0888 32.3092 26.1989 28.867 26.1989ZM41.1283 13.9603C41.1283 14.8988 40.1233 15.6484 38.8837 15.6484C37.6358 15.6484 36.6392 14.8925 36.6392 13.9603C36.6392 13.0281 37.6442 12.2722 38.8837 12.2722C40.1233 12.2722 41.1283 13.0281 41.1283 13.9603ZM47.5018 15.6736C47.3595 13.4123 46.6727 11.4093 44.47 9.75898C42.2757 8.10869 39.6124 7.59219 36.6057 7.47881C33.5068 7.34653 24.2187 7.34653 21.1199 7.47881C18.1215 7.58589 15.4582 8.10239 13.2555 9.75268C11.0529 11.403 10.3745 13.406 10.2237 15.6673C10.0478 17.9978 10.0478 24.9832 10.2237 27.3138C10.3661 29.5751 11.0529 31.5781 13.2555 33.2284C15.4582 34.8787 18.1132 35.3952 21.1199 35.5086C24.2187 35.6409 33.5068 35.6409 36.6057 35.5086C39.6124 35.4015 42.2757 34.885 44.47 33.2284C46.6643 31.5781 47.3511 29.5751 47.5018 27.3138C47.6777 24.9832 47.6777 18.0041 47.5018 15.6736ZM43.4985 29.8144C42.8452 31.049 41.5805 32.0001 39.9306 32.4977C37.4599 33.2347 31.5973 33.0646 28.867 33.0646C26.1366 33.0646 20.2656 33.2284 17.8033 32.4977C16.1617 32.0064 14.8971 31.0553 14.2354 29.8144C13.2555 27.9563 13.4817 23.5471 13.4817 21.4937C13.4817 19.4403 13.2639 15.0248 14.2354 13.1729C14.8887 11.9384 16.1534 10.9873 17.8033 10.4896C20.274 9.75268 26.1366 9.92275 28.867 9.92275C31.5973 9.92275 37.4683 9.75898 39.9306 10.4896C41.5722 10.981 42.8368 11.9321 43.4985 13.1729C44.4784 15.0311 44.2522 19.4403 44.2522 21.4937C44.2522 23.5471 44.4784 27.9626 43.4985 29.8144Z" fill="white"/>
</g>
<defs>
<clipPath id="clip0_637_181">
<rect width="37.521" height="32.25" fill="white" transform="translate(10.0991 5.375)"/>
</clipPath>
</defs>
</svg>
