<svg width="57" height="43" viewBox="0 0 57 43" fill="none" xmlns="http://www.w3.org/2000/svg">
<g clip-path="url(#clip0_637_185)">
<path d="M18.1585 34.0416V15.9091H10.1143V34.0416H18.1585ZM14.1374 13.4319C16.9426 13.4319 18.6887 12.0396 18.6887 10.2996C18.6364 8.52032 16.9427 7.1666 14.1907 7.1666C11.439 7.1666 9.63965 8.52035 9.63965 10.2996C9.63965 12.0396 11.3853 13.4319 14.0849 13.4319H14.1372H14.1374ZM22.611 34.0416H30.6553V23.9155C30.6553 23.3736 30.7076 22.8322 30.92 22.4448C31.5015 21.3621 32.8251 20.2406 35.0473 20.2406C37.9582 20.2406 39.1227 21.9034 39.1227 24.341V34.0415H47.1665V23.6445C47.1665 18.0749 43.1979 15.4834 37.9052 15.4834C33.5657 15.4834 31.6603 17.3007 30.6018 18.5385H30.6555V15.9087H22.6112C22.7168 17.6102 22.6112 34.0413 22.6112 34.0413L22.611 34.0416Z" fill="white"/>
</g>
<defs>
<clipPath id="clip0_637_185">
<rect width="37.521" height="26.875" fill="white" transform="translate(9.63965 7.16667)"/>
</clipPath>
</defs>
</svg>
