<svg width="43" height="43" viewBox="0 0 43 43" fill="none" xmlns="http://www.w3.org/2000/svg">
<path d="M21.8056 19.7268C23.1938 19.7268 24.5508 19.3162 25.7051 18.5471C26.8593 17.7779 27.759 16.6846 28.2902 15.4056C28.8215 14.1265 28.9605 12.719 28.6896 11.3611C28.4188 10.0033 27.7503 8.756 26.7687 7.77703C25.7871 6.79806 24.5364 6.13138 23.1749 5.86128C21.8134 5.59119 20.4021 5.72981 19.1195 6.25962C17.837 6.78944 16.7408 7.68664 15.9695 8.83779C15.1983 9.98893 14.7866 11.3423 14.7866 12.7268C14.7866 14.5833 15.5261 16.3638 16.8424 17.6765C18.1587 18.9893 19.944 19.7268 21.8056 19.7268Z" fill="white"/>
<path d="M32.334 37.2268C32.7994 37.2268 33.2458 37.0424 33.5748 36.7142C33.9039 36.386 34.0888 35.9409 34.0888 35.4768C34.0888 32.2279 32.7947 29.112 30.4911 26.8147C28.1876 24.5174 25.0633 23.2268 21.8056 23.2268C18.5479 23.2268 15.4237 24.5174 13.1201 26.8147C10.8166 29.112 9.52246 32.2279 9.52246 35.4768C9.52246 35.9409 9.70733 36.386 10.0364 36.7142C10.3655 37.0424 10.8118 37.2268 11.2772 37.2268H32.334Z" fill="white"/>
</svg>
