<svg width="43" height="43" viewBox="0 0 43 43" fill="none" xmlns="http://www.w3.org/2000/svg">
<path d="M36.7751 34.2343L30.809 28.3018C32.7339 25.8561 33.7784 22.8359 33.7745 19.7268C33.7745 16.9578 32.9512 14.2511 31.4087 11.9488C29.8662 9.64651 27.6738 7.8521 25.1087 6.79247C22.5436 5.73284 19.7211 5.4556 16.998 5.99579C14.2749 6.53598 11.7736 7.86935 9.81034 9.82729C7.84711 11.7852 6.51013 14.2798 5.96847 16.9955C5.42682 19.7113 5.70481 22.5262 6.76731 25.0844C7.8298 27.6425 9.62908 29.829 11.9376 31.3674C14.2461 32.9057 16.9602 33.7268 19.7366 33.7268C22.8542 33.7306 25.8825 32.689 28.3348 30.7693L34.2834 36.7193C34.4465 36.8833 34.6406 37.0135 34.8544 37.1023C35.0683 37.1912 35.2976 37.2369 35.5293 37.2369C35.7609 37.2369 35.9903 37.1912 36.2041 37.1023C36.4179 37.0135 36.612 36.8833 36.7751 36.7193C36.9396 36.5566 37.0701 36.363 37.1592 36.1498C37.2483 35.9365 37.2942 35.7078 37.2942 35.4768C37.2942 35.2458 37.2483 35.017 37.1592 34.8038C37.0701 34.5905 36.9396 34.397 36.7751 34.2343ZM9.20821 19.7268C9.20821 17.6501 9.82569 15.62 10.9826 13.8933C12.1394 12.1666 13.7838 10.8208 15.7076 10.026C17.6314 9.23133 19.7483 9.02339 21.7906 9.42854C23.8329 9.83368 25.7089 10.8337 27.1814 12.3022C28.6538 13.7706 29.6565 15.6415 30.0628 17.6783C30.469 19.7151 30.2605 21.8263 29.4636 23.745C28.6668 25.6636 27.3173 27.3035 25.5859 28.4572C23.8545 29.611 21.819 30.2268 19.7366 30.2268C16.9443 30.2268 14.2664 29.1205 12.2919 27.1514C10.3175 25.1823 9.20821 22.5116 9.20821 19.7268Z" fill="white"/>
</svg>
