<svg width="57" height="43" viewBox="0 0 57 43" fill="none" xmlns="http://www.w3.org/2000/svg">
<g clip-path="url(#clip0_637_189)">
<path d="M49.7043 12.0127C48.1237 12.5224 46.4471 12.857 44.7303 13.0053C46.5185 12.2252 47.8915 10.9898 48.5381 9.51797C46.8382 10.2522 44.9783 10.7695 43.0389 11.0476C41.4591 9.82257 39.2086 9.05698 36.7176 9.05698C31.9349 9.05698 28.0573 11.8793 28.0573 15.3602C28.0573 15.8543 28.1339 16.3353 28.2815 16.7968C21.0842 16.5339 14.703 14.0244 10.4316 10.2108C9.68633 11.1418 9.25927 12.2247 9.25927 13.3797C9.25927 15.5666 10.7883 17.4959 13.1119 18.6263C11.7366 18.595 10.3916 18.3246 9.18919 17.8378C9.1887 17.8642 9.1887 17.8906 9.1887 17.9172C9.1887 20.9712 12.1738 23.5189 16.1354 24.098C14.8601 24.3504 13.5225 24.3874 12.2246 24.206C13.3265 26.7102 16.5249 28.5326 20.3143 28.5836C17.3505 30.2741 13.6163 31.2819 9.55904 31.2819C8.85992 31.2819 8.17069 31.252 7.49316 31.1938C11.3256 32.9823 15.8777 34.0258 20.7682 34.0258C36.6975 34.0258 45.408 24.4208 45.408 16.0912C45.408 15.8178 45.3998 15.546 45.3829 15.2757C47.0784 14.3836 48.5417 13.2787 49.7043 12.0127Z" fill="white"/>
</g>
<defs>
<clipPath id="clip0_637_189">
<rect width="42.2112" height="25.0833" fill="white" transform="translate(7.49316 8.95833)"/>
</clipPath>
</defs>
</svg>
